<svg xmlns="http://www.w3.org/2000/svg" viewBox="0 0 202.59 88.72"><defs><style>.cls-1{fill:#f8d880;}.cls-2{fill:#fff;}</style></defs><title>Asset 1logo</title><g id="Layer_2" data-name="Layer 2"><g id="Layer_1-2" data-name="Layer 1"><path class="cls-1" d="M24.41,15.73V52.26H39a15,15,0,0,0,25.63,0H77.05V45.42H66.79c0-.35,0-.7,0-1.05a15.06,15.06,0,1,0-30.11,0c0,.35,0,.7,0,1.05h-5.5V15.73a8.89,8.89,0,0,1,8.88-8.88H70.28V37.21h6.84V0h-37A15.75,15.75,0,0,0,24.41,15.73ZM51.77,36.16a8.21,8.21,0,1,1-8.21,8.21A8.22,8.22,0,0,1,51.77,36.16Z"/><rect class="cls-1" x="84.94" width="58.79" height="6.85"/><rect class="cls-1" x="151.56" width="19.02" height="6.85"/><rect class="cls-1" x="144.05" y="14.54" width="19.02" height="6.85"/><path class="cls-1" d="M178.18,30.2H153.56v.07a15.06,15.06,0,0,0-20.35,14.1c0,.35,0,.7,0,1.05h-7.57c0-.35,0-.7,0-1.05A15,15,0,0,0,121.54,34V21.39h15.09V14.54H114.7V29.86a15,15,0,0,0-4-.55,15.26,15.26,0,0,0-3.79.48V14.54H84.94v6.85H100V33.72a15,15,0,0,0-4.42,10.65c0,.35,0,.7,0,1.05H84.94v6.84H97.86a15,15,0,0,0,25.62,0h12a15,15,0,0,0,25.62,0h9.5V45.42h-7.29c0-.35,0-.7,0-1.05a15,15,0,0,0-1.91-7.32h16.76ZM110.67,52.58a8.21,8.21,0,1,1,8.21-8.21A8.22,8.22,0,0,1,110.67,52.58Zm37.6,0a8.21,8.21,0,1,1,8.21-8.21A8.22,8.22,0,0,1,148.27,52.58Z"/><rect class="cls-1" x="39.47" y="14.54" width="23.27" height="6.85"/><path class="cls-2" d="M9.93,86.14H3.54l-1,2.3H0L5.48,76.22H8l5.48,12.22H11ZM6.74,78.79,4.47,84H9Z"/><path class="cls-2" d="M40.68,79.59l-4,5.31h-.45l-3.9-5.32v8.88h-2.3V76.24H32.7l3.83,5.26,3.82-5.26H43V88.46H40.68Z"/><path class="cls-2" d="M60.87,88.44V76.22h2.29V88.44Z"/><path class="cls-2" d="M84.74,78.32H80.87v-2.1h10v2.1H87.05V88.44H84.74Z"/><path class="cls-2" d="M118.86,88.44h-2.74l-3.56-4.08h-2.22v4.08H108V76.21h5.81c2.88,0,4.4,1.94,4.4,4a3.62,3.62,0,0,1-3.09,3.84l3.7,4.18Zm-8.52-10.07v3.91h3.51a2,2,0,1,0,0-3.91Z"/><path class="cls-2" d="M146.59,76.24v7c0,3.61-2.22,5.46-5.29,5.46a5.1,5.1,0,0,1-5.43-5.46v-7h2.29v7c0,2.2,1.26,3.37,3.16,3.37s3-1.27,3-3.37v-7Z"/><path class="cls-2" d="M175.32,86.91a6.44,6.44,0,0,1-4.65,1.81c-4.54,0-6.46-3.12-6.47-6.3A6.15,6.15,0,0,1,170.67,76a6.31,6.31,0,0,1,4.49,1.87l-1.54,1.48a4.16,4.16,0,0,0-3-1.15,4,4,0,0,0-4.2,4.24,3.91,3.91,0,0,0,4.2,4.14,4.54,4.54,0,0,0,3.08-1.24Z"/><path class="cls-2" d="M202.14,76.29l-5.43,5.85,5.88,6.16v.14h-2.84L194.63,83v5.41h-2.3V76.22h2.3v5.17l4.65-5.17h2.86Z"/></g></g></svg>