<svg id="Layer_1" data-name="Layer 1" xmlns="http://www.w3.org/2000/svg" viewBox="0 0 153.77 59.47"><defs><style>.cls-1{fill:#f8d880;}</style></defs><title>footer-amitruck-logo</title><g id="Layer_2" data-name="Layer 2"><g id="Layer_1-2" data-name="Layer 1-2"><path class="cls-1" d="M24.41,15.73V52.26H39a15,15,0,0,0,25.63,0H77.05V45.42H66.79v-1a15.06,15.06,0,0,0-30.11-.78q0,0.39,0,.78v1h-5.5V15.73a8.89,8.89,0,0,1,8.88-8.88H70.28V37.21h6.84V0h-37A15.75,15.75,0,0,0,24.41,15.73ZM51.77,36.16a8.21,8.21,0,1,1-8.21,8.21h0A8.22,8.22,0,0,1,51.77,36.16Z" transform="translate(-24.41)"/><rect class="cls-1" x="60.53" width="58.79" height="6.85"/><rect class="cls-1" x="127.15" width="19.02" height="6.85"/><rect class="cls-1" x="119.64" y="14.54" width="19.02" height="6.85"/><path class="cls-1" d="M178.18,30.2H153.56v0.07a15.06,15.06,0,0,0-20.35,14.1v1h-7.57v-1A15,15,0,0,0,121.54,34V21.39h15.09V14.54H114.7V29.86a15,15,0,0,0-4-.55,15.26,15.26,0,0,0-3.79.48V14.54h-22v6.85H100V33.72a15,15,0,0,0-4.42,10.65v1H84.94v6.84H97.86a15,15,0,0,0,25.62,0h12a15,15,0,0,0,25.62,0h9.5V45.42h-7.29v-1A15,15,0,0,0,161.4,37h16.76ZM110.67,52.58a8.21,8.21,0,1,1,8.21-8.21h0A8.22,8.22,0,0,1,110.67,52.58Zm37.6,0a8.21,8.21,0,1,1,8.21-8.21,8.21,8.21,0,0,1-8.21,8.21h0Z" transform="translate(-24.41)"/><rect class="cls-1" x="15.06" y="14.54" width="23.27" height="6.85"/></g></g></svg>