<svg id="Layer_1" data-name="Layer 1" xmlns="http://www.w3.org/2000/svg" viewBox="0 0 202.59 12.73"><defs><style>.cls-1{fill:#fff;}</style></defs><title>text-amitruck-logo</title><g id="Layer_2" data-name="Layer 2"><g id="Layer_1-2" data-name="Layer 1-2"><path class="cls-1" d="M9.93,86.14H3.54l-1,2.3H0L5.48,76.22H8l5.48,12.22H11ZM6.74,78.79L4.47,84H9Z" transform="translate(0 -75.99)"/><path class="cls-1" d="M40.68,79.59l-4,5.31H36.23l-3.9-5.32v8.88H30V76.24H32.7l3.83,5.26,3.82-5.26H43V88.46H40.68V79.59Z" transform="translate(0 -75.99)"/><path class="cls-1" d="M60.87,88.44V76.22h2.29V88.44H60.87Z" transform="translate(0 -75.99)"/><path class="cls-1" d="M84.74,78.32H80.87v-2.1h10v2.1H87.05V88.44H84.74V78.32Z" transform="translate(0 -75.99)"/><path class="cls-1" d="M118.86,88.44h-2.74l-3.56-4.08h-2.22v4.08H108V76.21h5.81c2.88,0,4.4,1.94,4.4,4A3.62,3.62,0,0,1,115.12,84l3.7,4.18Zm-8.52-10.07v3.91h3.51a2,2,0,1,0,0-3.91h-3.51Z" transform="translate(0 -75.99)"/><path class="cls-1" d="M146.59,76.24v7c0,3.61-2.22,5.46-5.29,5.46a5.1,5.1,0,0,1-5.43-5.46v-7h2.29v7c0,2.2,1.26,3.37,3.16,3.37s3-1.27,3-3.37v-7h2.27Z" transform="translate(0 -75.99)"/><path class="cls-1" d="M175.32,86.91a6.44,6.44,0,0,1-4.65,1.81c-4.54,0-6.46-3.12-6.47-6.3A6.15,6.15,0,0,1,170.07,76h0.6a6.31,6.31,0,0,1,4.49,1.87l-1.54,1.48a4.16,4.16,0,0,0-3-1.15,4,4,0,0,0-4.2,4.24,3.91,3.91,0,0,0,4.2,4.14,4.54,4.54,0,0,0,3.08-1.24Z" transform="translate(0 -75.99)"/><path class="cls-1" d="M202.14,76.29l-5.43,5.85,5.88,6.16v0.14h-2.84L194.63,83v5.41h-2.3V76.22h2.3v5.17l4.65-5.17h2.86v0.07Z" transform="translate(0 -75.99)"/></g></g></svg>